<svg version="1.1" xmlns="http://www.w3.org/2000/svg" width="325" height="264" viewBox="0 0 325 264">
<g transform="translate(0.000000,264.000000) scale(0.100000,-0.100000)" stroke="none">
<path d="M2470 2155 l0 -295 -45 0 -45 0 0 -121 0 -121 -90 8 c-84 6 -93 5
-145 -21 -95 -46 -145 -136 -153 -275 -5 -101 13 -180 59 -248 l28 -42 -94 0
-95 0 0 40 0 40 -165 2 -165 3 155 190 154 190 1 58 0 57 -260 0 -260 0 0 -70
0 -69 150 -3 150 -3 -149 -186 -149 -186 -3 -59 -3 -59 430 -2 c236 -1 447 -2
469 -3 22 0 92 1 155 2 63 2 269 5 458 6 l342 2 0 25 0 25 -335 0 -335 0 0
265 0 265 65 0 c63 0 65 1 65 25 0 24 -2 25 -65 25 l-65 0 0 415 0 415 -30 0
-30 0 0 -295z m-145 -679 c18 -8 38 -23 44 -34 6 -12 11 -74 11 -142 0 -121 0
-122 -29 -151 -25 -25 -37 -29 -81 -29 -45 0 -56 4 -80 30 -28 30 -50 100 -50
159 0 54 29 129 61 155 35 29 73 33 124 12z"/>
<path d="M700 1455 l0 -405 -165 0 -165 0 0 -25 0 -25 164 0 c140 0 165 -2
170 -16 3 -9 6 -126 6 -261 l0 -244 23 3 22 3 3 248 2 247 36 0 c26 0 37 5 41
18 4 18 6 18 43 0 50 -25 155 -26 205 -2 52 24 94 70 124 134 23 50 26 67 26
175 0 101 -3 127 -21 165 -31 66 -72 110 -129 136 -61 29 -120 30 -193 5 l-54
-19 7 134 7 134 -76 0 -76 0 0 -405z m315 23 c82 -37 98 -256 25 -330 -24 -23
-37 -28 -80 -28 -44 0 -56 4 -81 29 -29 29 -29 30 -29 153 0 123 0 125 28 150
42 40 88 48 137 26z"/>
</g>
</svg>
