<svg version="1.0" xmlns="http://www.w3.org/2000/svg"
 width="900" height="564" viewBox="0 0 900.000000 564.000000"
 preserveAspectRatio="xMidYMid meet">
<g transform="translate(0.000000,564.000000) scale(0.100000,-0.100000)" stroke="none">
<path d="M673 4869 c-17 -17 -19 -2479 -3 -2659 22 -246 81 -431 212 -662 7
-12 45 -65 83 -118 126 -171 290 -314 483 -422 57 -32 109 -58 116 -58 7 0 16
-4 22 -8 12 -10 102 -44 174 -65 162 -48 190 -51 410 -52 219 0 277 7 425 51
459 138 826 497 974 952 89 276 84 623 -13 907 -52 152 -141 313 -244 445 -71
91 -298 294 -362 323 -8 4 -31 17 -50 28 -116 71 -253 124 -430 166 -109 26
-463 25 -570 -1 -204 -50 -365 -117 -494 -206 -26 -17 -51 -28 -56 -25 -6 4
-10 175 -10 473 0 442 -1 471 -21 532 -60 193 -202 333 -392 386 -76 21 -239
30 -254 13z m1642 -1810 c140 -24 299 -106 406 -210 107 -104 176 -221 218
-370 27 -96 30 -300 5 -387 -84 -301 -280 -503 -565 -581 -103 -29 -303 -29
-404 -1 -98 27 -131 40 -200 79 -355 199 -503 638 -339 1008 104 237 331 415
589 462 119 22 162 22 290 0z"/>
<path d="M8140 4870 c-105 -18 -128 -24 -190 -53 -80 -38 -135 -78 -190 -142
-55 -63 -109 -180 -121 -259 -5 -34 -9 -260 -9 -503 0 -244 -3 -443 -6 -443
-4 0 -34 17 -67 37 -139 85 -301 149 -472 188 -114 27 -425 27 -540 1 -242
-55 -454 -152 -622 -284 -50 -40 -181 -167 -234 -228 -40 -44 -132 -189 -172
-269 -200 -402 -204 -860 -10 -1265 266 -556 854 -889 1454 -824 148 16 217
30 331 68 223 74 412 196 591 378 249 255 393 564 427 916 15 158 13 2665 -2
2680 -13 13 -96 14 -168 2z m-1175 -1811 c301 -54 528 -261 632 -579 14 -43
18 -88 18 -200 0 -138 -2 -150 -33 -244 -36 -104 -69 -167 -139 -257 -70 -90
-215 -200 -313 -237 -122 -46 -164 -54 -310 -54 -139 0 -149 1 -246 34 -328
111 -544 412 -544 758 0 254 110 471 322 636 31 24 60 44 64 44 4 0 15 6 23
14 42 36 193 80 341 99 34 5 112 -2 185 -14z"/>
<path d="M3407 3683 c-11 -10 -8 -284 3 -341 25 -134 110 -230 239 -271 22 -7
196 -11 505 -11 264 0 477 -4 485 -9 16 -10 18 -5 -77 -141 -21 -30 -63 -91
-95 -135 -31 -44 -73 -105 -94 -135 -21 -30 -70 -100 -110 -155 -40 -55 -93
-129 -118 -165 -25 -36 -81 -113 -123 -172 -42 -59 -102 -143 -132 -188 -30
-44 -90 -128 -132 -187 -42 -60 -98 -137 -123 -173 -25 -36 -79 -111 -119
-166 -41 -56 -79 -117 -86 -135 -8 -25 -9 -87 -3 -234 l8 -200 1095 0 1095 0
3 145 c2 121 -1 155 -17 210 -37 121 -114 209 -217 249 -54 20 -70 21 -550 21
-449 0 -495 2 -501 16 -3 9 -2 22 3 30 5 7 39 54 76 106 37 51 102 142 145
202 43 60 110 153 148 206 39 54 106 148 150 210 44 62 112 157 150 211 39 53
104 145 145 203 41 58 109 153 150 210 41 58 91 128 110 156 19 28 54 78 78
111 l42 60 -2 237 -3 237 -1061 3 c-583 1 -1064 -1 -1067 -5z"/>
</g>
</svg>
