<svg version="1.1" xmlns="http://www.w3.org/2000/svg" width="768" height="768" viewBox="0 0 768 768">
<title></title>
<path d="M704 128h-297.4l-54.6-54.6c-6-6-14.1-9.4-22.6-9.4h-265.4c-35.3 0-64 28.7-64 64v512c0 35.3 28.7 64 64 64h640c35.3 0 64-28.7 64-64v-448c0-35.3-28.7-64-64-64zM704 640h-640v-320c0-35.3 28.7-64 64-64h512c35.3 0 64 28.7 64 64v320c0 0 0 0 0 0zM640 192h-512c-38.2 0-72.5 16.8-96 43.4v-107.4c0-17.6 14.4-32 32-32h265.4l54.6 54.6c6 6 14.1 9.4 22.6 9.4h297.4c17.6 0 32 14.4 32 32v43.4c-23.5-26.6-57.8-43.4-96-43.4z"></path>
</svg>
