<svg version="1.1" xmlns="http://www.w3.org/2000/svg" width="512" height="512" viewBox="0 0 512 512">
    <path fill="white" d="M181.861 361.026l20.649-28.908-22.627-22.628-28.909 20.648c-5.361-2.997-11.102-5.387-17.133-7.096l-5.841-35.042h-32l-5.84 35.043c-6.031 1.709-11.772 4.099-17.133 7.096l-28.909-20.649-22.628 22.628 20.649 28.908c-2.997 5.36-5.387 11.103-7.096 17.133l-35.043 5.841v32l35.043 5.841c1.709 6.030 4.099 11.772 7.096 17.133l-20.649 28.908 22.627 22.628 28.909-20.648c5.361 2.997 11.102 5.387 17.133 7.096l5.841 35.042h32l5.84-35.043c6.031-1.709 11.772-4.099 17.133-7.096l28.909 20.648 22.627-22.628-20.649-28.908c2.997-5.36 5.387-11.103 7.096-17.133l35.044-5.84v-32l-35.043-5.841c-1.709-6.030-4.099-11.772-7.096-17.133zM112 432c-17.674 0-32-14.327-32-32s14.326-32 32-32 32 14.327 32 32-14.326 32-32 32zM512 192v-32l-33.691-6.125c-0.621-4.023-1.416-7.989-2.362-11.895l28.779-18.55-12.246-29.564-33.472 7.234c-2.107-3.455-4.363-6.81-6.746-10.065l19.503-28.171-22.628-22.627-28.171 19.503c-3.256-2.383-6.61-4.638-10.065-6.747l7.234-33.472-29.564-12.247-18.55 28.779c-3.906-0.946-7.872-1.741-11.895-2.362l-6.126-33.691h-32l-6.126 33.691c-4.023 0.621-7.988 1.416-11.895 2.362l-18.549-28.779-29.564 12.246 7.234 33.472c-3.455 2.108-6.81 4.364-10.065 6.747l-28.171-19.503-22.627 22.627 19.503 28.171c-2.383 3.255-4.639 6.61-6.747 10.065l-33.472-7.234-12.246 29.564 28.779 18.55c-0.946 3.906-1.741 7.871-2.362 11.895l-33.692 6.126v32l33.691 6.125c0.621 4.023 1.416 7.989 2.362 11.895l-28.779 18.55 12.246 29.564 33.472-7.234c2.108 3.455 4.364 6.809 6.747 10.065l-19.503 28.171 22.627 22.628 28.171-19.503c3.255 2.383 6.61 4.638 10.065 6.746l-7.234 33.472 29.564 12.246 18.551-28.779c3.905 0.946 7.871 1.741 11.894 2.362l6.126 33.692h32l6.126-33.691c4.022-0.621 7.988-1.416 11.895-2.362l18.55 28.779 29.564-12.246-7.234-33.472c3.455-2.108 6.81-4.363 10.065-6.746l28.171 19.503 22.628-22.628-19.503-28.171c2.383-3.256 4.638-6.61 6.746-10.065l33.472 7.234 12.246-29.565-28.779-18.55c0.946-3.906 1.741-7.871 2.362-11.895l33.691-6.125zM336 245.6c-38.439 0-69.6-31.161-69.6-69.6s31.16-69.6 69.6-69.6 69.6 31.161 69.6 69.6c0 38.439-31.16 69.6-69.6 69.6z"></path>
</svg>
