<svg version="1.1" xmlns="http://www.w3.org/2000/svg" width="1024" height="1024" viewBox="0 0 1024 1024">
    <path d="M938.688 96h-138.688v-64c0-17.696-14.304-32-32-32s-32 14.304-32 32v64h-192v-64c0-17.696-14.336-32-32-32s-32 14.304-32 32v64h-192v-64c0-17.696-14.336-32-32-32s-32 14.304-32 32v64h-138.656c-47.136 0-85.344 38.176-85.344 85.312v757.344c0 47.136 38.208 85.344 85.344 85.344h853.344c47.136 0 85.312-38.208 85.312-85.344v-757.344c0-47.136-38.176-85.312-85.312-85.312zM960 938.656c0 11.776-9.568 21.344-21.312 21.344h-853.344c-11.776 0-21.344-9.568-21.344-21.344v-757.344c0-11.744 9.568-21.312 21.344-21.312h138.656v64c0 17.696 14.336 32 32 32s32-14.304 32-32v-64h192v64c0 17.696 14.336 32 32 32s32-14.304 32-32v-64h192v64c0 17.696 14.304 32 32 32s32-14.304 32-32v-64h138.688c11.744 0 21.312 9.568 21.312 21.312v757.344zM224 384h128v96h-128zM224 544h128v96h-128zM224 704h128v96h-128zM448 704h128v96h-128zM448 544h128v96h-128zM448 384h128v96h-128zM672 704h128v96h-128zM672 544h128v96h-128zM672 384h128v96h-128z"></path>
</svg>
