<svg version="1.1" xmlns="http://www.w3.org/2000/svg" width="32" height="32" viewBox="0 0 32 32">
	<path d="M16.986 23.166c1.173 0.408 2.014 1.523 2.014 2.834 0 1.657-1.343 3-3 3s-3-1.343-3-3c0-1.311 0.841-2.426 2.014-2.834-0.009-0.055-0.014-0.111-0.014-0.168v-9.995c0-0.547 0.448-1.002 1-1.002 0.556 0 1 0.449 1 1.002v9.995c0 0.057-0.005 0.113-0.014 0.168v0zM18 22.535v-18.532c0-1.107-0.888-2.004-2-2.004-1.105 0-2 0.89-2 2.004v18.532c-1.196 0.692-2 1.984-2 3.465 0 2.209 1.791 4 4 4s4-1.791 4-4c0-1.481-0.804-2.773-2-3.465zM19 22c1.214 0.912 2 2.365 2 4 0 2.761-2.239 5-5 5s-5-2.239-5-5c0-1.636 0.786-3.088 2-4v-18.009c0-1.647 1.343-2.991 3-2.991 1.653 0 3 1.339 3 2.991v18.009z"></path>
</svg>