<svg version="1.1" xmlns="http://www.w3.org/2000/svg" width="1024" height="1024" viewBox="0 0 1024 1024">
    <path d="M207.302 413.674c-17.294 15.129-60.506 43.227-84.275 100.493h777.995c-24.857-57.265-66.997-85.363-84.275-100.493 202.051-14.050 224.753-357.662-94.017-357.662h-420.333c-319.838 0-297.146 343.603-95.095 357.662zM737.85 127.331c205.301-6.484 251.759 236.644-38.899 244.205-4.33-76.721 11.878-179.37 38.899-244.205zM286.175 127.331c27.012 65.92 43.227 168.566 38.899 244.205-290.664-7.561-245.277-251.759-38.899-244.205z"></path>
    <path d="M118.673 523.891c-3.233 9.718-6.475 20.527-9.718 31.331h805.002c-2.165-10.803-5.396-21.614-8.638-31.331z"></path>
    <path d="M135.982 754.037h752.061c11.884-24.857 21.614-52.944 27.012-85.363 6.484-39.985 6.484-73.481 1.077-102.645h-808.242c-4.319 29.175-5.396 62.671 1.077 102.645 5.396 32.419 15.129 60.506 27.012 85.363zM590.874 613.559h77.802v58.351h-33.496v-36.736h-25.935v58.351h81.042v-105.889c15.129-1.077 30.252-1.077 45.383-2.165v105.889h77.802v-57.265h-18.372l-1.077 36.736h-25.935l1.077-58.351h66.997l1.077 101.568h-246.374zM546.576 591.954v124.259h-21.614l-3.242-124.259h24.857zM477.424 591.954h24.857l-3.242 124.259h-21.614zM187.832 613.559h66.997l1.077 58.351h-25.935l-1.077-36.736h-18.372v57.265h77.802v-105.889c15.129 1.077 30.252 1.077 45.383 2.165v104.812h81.033v-58.351h-25.935v36.736h-33.496v-58.351h77.802v101.568l-246.35 0.009z"></path>
    <path d="M882.634 763.784h-741.243c48.623 89.687 131.823 121.018 164.245 126.425 2.165 14.050-5.396 47.546-37.819 77.802h488.404c-32.419-30.252-39.985-63.753-37.819-77.802 33.496-5.407 115.62-36.745 164.245-126.425z"></path>
</svg>
